<mxfile>
    <diagram id="WhyABuYffxXSLaBr-vBV" name="Page-1">
        <mxGraphModel dx="2133" dy="1543" grid="1" gridSize="10" guides="1" tooltips="1" connect="1" arrows="1" fold="1" page="1" pageScale="1" pageWidth="827" pageHeight="1169" math="0" shadow="0">
            <root>
                <mxCell id="0"/>
                <mxCell id="1" parent="0"/>
                <mxCell id="r683WjKuvn_9Z7QUN_UL-2" value="" style="endArrow=none;html=1;strokeWidth=4;" parent="1" edge="1">
                    <mxGeometry width="50" height="50" relative="1" as="geometry">
                        <mxPoint x="60" y="110" as="sourcePoint"/>
                        <mxPoint x="2212" y="1330" as="targetPoint"/>
                        <Array as="points">
                            <mxPoint x="180" y="190"/>
                            <mxPoint x="330" y="260"/>
                            <mxPoint x="470" y="320"/>
                            <mxPoint x="510" y="370"/>
                            <mxPoint x="650" y="390"/>
                            <mxPoint x="780" y="400"/>
                            <mxPoint x="760" y="450"/>
                            <mxPoint x="790" y="460"/>
                            <mxPoint x="820" y="430"/>
                            <mxPoint x="960" y="470"/>
                            <mxPoint x="1100" y="500"/>
                            <mxPoint x="1340" y="500"/>
                            <mxPoint x="1470" y="480"/>
                            <mxPoint x="1760" y="390"/>
                            <mxPoint x="1800" y="380"/>
                            <mxPoint x="1830" y="380"/>
                            <mxPoint x="1830" y="390"/>
                            <mxPoint x="1770" y="430"/>
                            <mxPoint x="1750" y="470"/>
                            <mxPoint x="1730" y="520"/>
                            <mxPoint x="1710" y="550"/>
                            <mxPoint x="1670" y="580"/>
                            <mxPoint x="1720" y="660"/>
                            <mxPoint x="1740" y="720"/>
                            <mxPoint x="1730" y="760"/>
                            <mxPoint x="1710" y="800"/>
                            <mxPoint x="1640" y="880"/>
                            <mxPoint x="1630" y="930"/>
                            <mxPoint x="1650" y="1070"/>
                            <mxPoint x="1650" y="1110"/>
                            <mxPoint x="1630" y="1200"/>
                            <mxPoint x="1630" y="1260"/>
                            <mxPoint x="1640" y="1310"/>
                            <mxPoint x="1690" y="1390"/>
                            <mxPoint x="1720" y="1460"/>
                            <mxPoint x="1750" y="1470"/>
                            <mxPoint x="1800" y="1490"/>
                            <mxPoint x="1880" y="1550"/>
                            <mxPoint x="1930" y="1530"/>
                            <mxPoint x="2020" y="1490"/>
                            <mxPoint x="2110" y="1410"/>
                        </Array>
                    </mxGeometry>
                </mxCell>
                <mxCell id="iyeAIsauSFK0g4QlF5cE-1" value="" style="endArrow=none;html=1;strokeWidth=4;" parent="1" edge="1">
                    <mxGeometry width="50" height="50" relative="1" as="geometry">
                        <mxPoint x="720" y="394" as="sourcePoint"/>
                        <mxPoint x="838" y="209" as="targetPoint"/>
                        <Array as="points">
                            <mxPoint x="720" y="380"/>
                            <mxPoint x="730" y="360"/>
                            <mxPoint x="790" y="350"/>
                            <mxPoint x="810" y="330"/>
                            <mxPoint x="830" y="290"/>
                            <mxPoint x="838" y="250"/>
                        </Array>
                    </mxGeometry>
                </mxCell>
                <mxCell id="iyeAIsauSFK0g4QlF5cE-2" value="" style="verticalLabelPosition=bottom;align=center;html=1;verticalAlign=top;pointerEvents=1;dashed=0;shape=mxgraph.pid2valves.valve;valveType=gate;defState=closed;strokeWidth=1;fillColor=none;fontSize=17;rotation=23;" parent="1" vertex="1">
                    <mxGeometry x="1513" y="2433.5" width="37.54" height="22.5" as="geometry"/>
                </mxCell>
                <mxCell id="iyeAIsauSFK0g4QlF5cE-4" value="" style="verticalLabelPosition=bottom;align=center;html=1;verticalAlign=top;pointerEvents=1;dashed=0;shape=mxgraph.pid2valves.valve;valveType=gate;defState=closed;strokeWidth=1;fillColor=none;fontSize=17;rotation=-75;" parent="1" vertex="1">
                    <mxGeometry x="926" y="456" width="37.54" height="22.5" as="geometry"/>
                </mxCell>
                <mxCell id="iyeAIsauSFK0g4QlF5cE-5" value="" style="verticalLabelPosition=bottom;align=center;html=1;verticalAlign=top;pointerEvents=1;dashed=0;shape=mxgraph.pid2valves.valve;valveType=gate;defState=closed;strokeWidth=1;fillColor=none;fontSize=17;rotation=0;" parent="1" vertex="1">
                    <mxGeometry x="1224" y="2150" width="37.54" height="22.5" as="geometry"/>
                </mxCell>
                <mxCell id="iyeAIsauSFK0g4QlF5cE-6" value="" style="verticalLabelPosition=bottom;align=center;html=1;verticalAlign=top;pointerEvents=1;dashed=0;shape=mxgraph.pid2valves.valve;valveType=gate;defState=closed;strokeWidth=1;fillColor=none;fontSize=17;rotation=42;" parent="1" vertex="1">
                    <mxGeometry x="1670" y="556.5" width="37.54" height="22.5" as="geometry"/>
                </mxCell>
                <mxCell id="iyeAIsauSFK0g4QlF5cE-7" value="" style="verticalLabelPosition=bottom;align=center;html=1;verticalAlign=top;pointerEvents=1;dashed=0;shape=mxgraph.pid2valves.valve;valveType=gate;defState=closed;strokeWidth=1;fillColor=none;fontSize=17;rotation=90;" parent="1" vertex="1">
                    <mxGeometry x="1271" y="456" width="37.54" height="22.5" as="geometry"/>
                </mxCell>
                <mxCell id="iyeAIsauSFK0g4QlF5cE-8" value="" style="verticalLabelPosition=bottom;align=center;html=1;verticalAlign=top;pointerEvents=1;dashed=0;shape=mxgraph.pid2valves.valve;valveType=gate;defState=closed;strokeWidth=1;fillColor=none;fontSize=17;rotation=-90;" parent="1" vertex="1">
                    <mxGeometry x="742.4599999999999" y="342" width="37.54" height="22.5" as="geometry"/>
                </mxCell>
                <mxCell id="iyeAIsauSFK0g4QlF5cE-10" value="" style="endArrow=none;html=1;strokeWidth=4;" parent="1" edge="1">
                    <mxGeometry width="50" height="50" relative="1" as="geometry">
                        <mxPoint x="1434" y="186" as="sourcePoint"/>
                        <mxPoint x="1201" y="268" as="targetPoint"/>
                        <Array as="points">
                            <mxPoint x="1439" y="280"/>
                            <mxPoint x="1419" y="350"/>
                            <mxPoint x="1399" y="390"/>
                            <mxPoint x="1369" y="418"/>
                            <mxPoint x="1389" y="468"/>
                            <mxPoint x="1329" y="480"/>
                            <mxPoint x="1319" y="468"/>
                            <mxPoint x="1259" y="468"/>
                            <mxPoint x="1251" y="418"/>
                            <mxPoint x="1251" y="378"/>
                            <mxPoint x="1251" y="370"/>
                            <mxPoint x="1231" y="328"/>
                            <mxPoint x="1229" y="298"/>
                        </Array>
                    </mxGeometry>
                </mxCell>
                <mxCell id="iyeAIsauSFK0g4QlF5cE-11" value="" style="endArrow=none;html=1;strokeWidth=4;" parent="1" edge="1">
                    <mxGeometry width="50" height="50" relative="1" as="geometry">
                        <mxPoint x="1320" y="500" as="sourcePoint"/>
                        <mxPoint x="1320" y="470" as="targetPoint"/>
                    </mxGeometry>
                </mxCell>
                <mxCell id="iyeAIsauSFK0g4QlF5cE-13" value="7103" style="text;html=1;strokeColor=none;fillColor=none;align=center;verticalAlign=middle;whiteSpace=wrap;rounded=0;fontStyle=1;fontSize=33;" parent="1" vertex="1">
                    <mxGeometry x="1145" y="283" width="40" height="20" as="geometry"/>
                </mxCell>
                <mxCell id="iyeAIsauSFK0g4QlF5cE-14" value="7104" style="text;html=1;strokeColor=none;fillColor=none;align=center;verticalAlign=middle;whiteSpace=wrap;rounded=0;fontSize=33;fontStyle=1" parent="1" vertex="1">
                    <mxGeometry x="1217" y="236" width="40" height="20" as="geometry"/>
                </mxCell>
                <mxCell id="iyeAIsauSFK0g4QlF5cE-15" value="7102" style="text;html=1;strokeColor=none;fillColor=none;align=center;verticalAlign=middle;whiteSpace=wrap;rounded=0;fontSize=33;fontStyle=1" parent="1" vertex="1">
                    <mxGeometry x="1170" y="331" width="40" height="20" as="geometry"/>
                </mxCell>
                <mxCell id="iyeAIsauSFK0g4QlF5cE-16" value="7101" style="text;html=1;strokeColor=none;fillColor=none;align=center;verticalAlign=middle;whiteSpace=wrap;rounded=0;fontSize=33;fontStyle=1" parent="1" vertex="1">
                    <mxGeometry x="1277" y="370" width="40" height="20" as="geometry"/>
                </mxCell>
                <mxCell id="iyeAIsauSFK0g4QlF5cE-17" value="7110" style="text;html=1;strokeColor=none;fillColor=none;align=center;verticalAlign=middle;whiteSpace=wrap;rounded=0;fontSize=33;fontStyle=1" parent="1" vertex="1">
                    <mxGeometry x="1454" y="163" width="40" height="20" as="geometry"/>
                </mxCell>
                <mxCell id="iyeAIsauSFK0g4QlF5cE-18" value="&lt;font style=&quot;font-size: 24px;&quot;&gt;BIOSABOR&lt;/font&gt;" style="text;html=1;strokeColor=none;fillColor=none;align=center;verticalAlign=middle;whiteSpace=wrap;rounded=0;fontSize=24;fontStyle=1" parent="1" vertex="1">
                    <mxGeometry x="1308.54" y="295" width="40" height="20" as="geometry"/>
                </mxCell>
                <mxCell id="iyeAIsauSFK0g4QlF5cE-19" value="" style="rounded=1;whiteSpace=wrap;html=1;fontSize=24;fillColor=none;strokeWidth=3;" parent="1" vertex="1">
                    <mxGeometry x="1258.54" y="286" width="140" height="38" as="geometry"/>
                </mxCell>
                <mxCell id="iyeAIsauSFK0g4QlF5cE-20" value="GORRION" style="text;html=1;strokeColor=none;fillColor=none;align=center;verticalAlign=middle;whiteSpace=wrap;rounded=0;fontSize=24;fontStyle=1" parent="1" vertex="1">
                    <mxGeometry x="995" y="548" width="40" height="20" as="geometry"/>
                </mxCell>
                <mxCell id="iyeAIsauSFK0g4QlF5cE-22" value="ARQUETA FUNCIONES" style="text;html=1;strokeColor=none;fillColor=none;align=center;verticalAlign=middle;whiteSpace=wrap;rounded=0;fontSize=24;fontStyle=1" parent="1" vertex="1">
                    <mxGeometry x="1241" y="528" width="40" height="20" as="geometry"/>
                </mxCell>
                <mxCell id="iyeAIsauSFK0g4QlF5cE-23" value="" style="rounded=1;whiteSpace=wrap;html=1;strokeWidth=3;fillColor=none;fontSize=24;" parent="1" vertex="1">
                    <mxGeometry x="950" y="540" width="130" height="40" as="geometry"/>
                </mxCell>
                <mxCell id="iyeAIsauSFK0g4QlF5cE-24" value="" style="rounded=1;whiteSpace=wrap;html=1;strokeWidth=3;fillColor=none;fontSize=24;" parent="1" vertex="1">
                    <mxGeometry x="1180" y="510" width="160" height="60" as="geometry"/>
                </mxCell>
                <mxCell id="iyeAIsauSFK0g4QlF5cE-25" value="7206" style="text;html=1;strokeColor=none;fillColor=none;align=center;verticalAlign=middle;whiteSpace=wrap;rounded=0;fontSize=33;fontStyle=1" parent="1" vertex="1">
                    <mxGeometry x="1290" y="585" width="40" height="20" as="geometry"/>
                </mxCell>
                <mxCell id="iyeAIsauSFK0g4QlF5cE-26" value="7205" style="text;html=1;strokeColor=none;fillColor=none;align=center;verticalAlign=middle;whiteSpace=wrap;rounded=0;fontSize=33;fontStyle=1" parent="1" vertex="1">
                    <mxGeometry x="1380" y="507" width="40" height="20" as="geometry"/>
                </mxCell>
                <mxCell id="iyeAIsauSFK0g4QlF5cE-28" value="7208" style="text;html=1;strokeColor=none;fillColor=none;align=center;verticalAlign=middle;whiteSpace=wrap;rounded=0;fontSize=33;fontStyle=1" parent="1" vertex="1">
                    <mxGeometry x="1470" y="490" width="40" height="20" as="geometry"/>
                </mxCell>
                <mxCell id="iyeAIsauSFK0g4QlF5cE-29" value="7207" style="text;html=1;strokeColor=none;fillColor=none;align=center;verticalAlign=middle;whiteSpace=wrap;rounded=0;fontSize=33;fontStyle=1" parent="1" vertex="1">
                    <mxGeometry x="1555" y="470" width="40" height="20" as="geometry"/>
                </mxCell>
                <mxCell id="iyeAIsauSFK0g4QlF5cE-30" value="7011" style="text;html=1;strokeColor=none;fillColor=none;align=center;verticalAlign=middle;whiteSpace=wrap;rounded=0;fontSize=33;fontStyle=1" parent="1" vertex="1">
                    <mxGeometry x="1654" y="440" width="40" height="20" as="geometry"/>
                </mxCell>
                <mxCell id="iyeAIsauSFK0g4QlF5cE-31" value="PINO" style="text;html=1;strokeColor=none;fillColor=none;align=center;verticalAlign=middle;whiteSpace=wrap;rounded=0;fontSize=24;fontStyle=1" parent="1" vertex="1">
                    <mxGeometry x="1871" y="387" width="40" height="20" as="geometry"/>
                </mxCell>
                <mxCell id="iyeAIsauSFK0g4QlF5cE-32" value="" style="rounded=1;whiteSpace=wrap;html=1;strokeWidth=3;fillColor=none;fontSize=24;" parent="1" vertex="1">
                    <mxGeometry x="1851" y="377" width="80" height="40" as="geometry"/>
                </mxCell>
                <mxCell id="iyeAIsauSFK0g4QlF5cE-33" value="" style="endArrow=none;html=1;strokeWidth=4;fontSize=24;" parent="1" edge="1">
                    <mxGeometry width="50" height="50" relative="1" as="geometry">
                        <mxPoint x="1716" y="1204" as="sourcePoint"/>
                        <mxPoint x="1916" y="179" as="targetPoint"/>
                        <Array as="points">
                            <mxPoint x="1722" y="1100"/>
                            <mxPoint x="1832" y="1080"/>
                            <mxPoint x="1832" y="830"/>
                            <mxPoint x="1820" y="740"/>
                            <mxPoint x="1800" y="700"/>
                            <mxPoint x="1790" y="650"/>
                            <mxPoint x="1790" y="550"/>
                            <mxPoint x="1820" y="550"/>
                            <mxPoint x="1830" y="500"/>
                            <mxPoint x="1830" y="470"/>
                            <mxPoint x="1800" y="460"/>
                            <mxPoint x="1800" y="440"/>
                            <mxPoint x="1830" y="420"/>
                            <mxPoint x="1840" y="400"/>
                            <mxPoint x="1820" y="360"/>
                            <mxPoint x="1820" y="300"/>
                            <mxPoint x="1870" y="240"/>
                            <mxPoint x="1900" y="220"/>
                        </Array>
                    </mxGeometry>
                </mxCell>
                <mxCell id="iyeAIsauSFK0g4QlF5cE-35" value="MONSANTO" style="text;html=1;strokeColor=none;fillColor=none;align=center;verticalAlign=middle;whiteSpace=wrap;rounded=0;fontSize=24;fontStyle=1" parent="1" vertex="1">
                    <mxGeometry x="1557" y="264" width="40" height="20" as="geometry"/>
                </mxCell>
                <mxCell id="iyeAIsauSFK0g4QlF5cE-36" value="" style="rounded=1;whiteSpace=wrap;html=1;strokeWidth=3;fillColor=none;fontSize=24;" parent="1" vertex="1">
                    <mxGeometry x="1500" y="260" width="150" height="30" as="geometry"/>
                </mxCell>
                <mxCell id="iyeAIsauSFK0g4QlF5cE-38" value="" style="endArrow=none;html=1;strokeWidth=4;fontSize=24;" parent="1" edge="1">
                    <mxGeometry width="50" height="50" relative="1" as="geometry">
                        <mxPoint x="1850" y="270" as="sourcePoint"/>
                        <mxPoint x="1700" y="190" as="targetPoint"/>
                        <Array as="points">
                            <mxPoint x="1800" y="230"/>
                            <mxPoint x="1770" y="250"/>
                            <mxPoint x="1760" y="280"/>
                            <mxPoint x="1740" y="260"/>
                            <mxPoint x="1710" y="250"/>
                            <mxPoint x="1710" y="230"/>
                        </Array>
                    </mxGeometry>
                </mxCell>
                <mxCell id="iyeAIsauSFK0g4QlF5cE-39" value="7004" style="text;html=1;strokeColor=none;fillColor=none;align=center;verticalAlign=middle;whiteSpace=wrap;rounded=0;fontSize=33;fontStyle=1" parent="1" vertex="1">
                    <mxGeometry x="1640" y="200" width="40" height="20" as="geometry"/>
                </mxCell>
                <mxCell id="iyeAIsauSFK0g4QlF5cE-40" value="7003&lt;br&gt;" style="text;html=1;strokeColor=none;fillColor=none;align=center;verticalAlign=middle;whiteSpace=wrap;rounded=0;fontSize=33;fontStyle=1" parent="1" vertex="1">
                    <mxGeometry x="1691" y="274" width="40" height="20" as="geometry"/>
                </mxCell>
                <mxCell id="iyeAIsauSFK0g4QlF5cE-41" value="7002" style="text;html=1;strokeColor=none;fillColor=none;align=center;verticalAlign=middle;whiteSpace=wrap;rounded=0;fontSize=33;fontStyle=1" parent="1" vertex="1">
                    <mxGeometry x="1720" y="303" width="40" height="20" as="geometry"/>
                </mxCell>
                <mxCell id="iyeAIsauSFK0g4QlF5cE-42" value="7020" style="text;html=1;strokeColor=none;fillColor=none;align=center;verticalAlign=middle;whiteSpace=wrap;rounded=0;fontSize=33;fontStyle=1" parent="1" vertex="1">
                    <mxGeometry x="1931" y="190" width="40" height="20" as="geometry"/>
                </mxCell>
                <mxCell id="iyeAIsauSFK0g4QlF5cE-43" value="" style="endArrow=none;html=1;strokeWidth=4;fontSize=33;" parent="1" edge="1">
                    <mxGeometry width="50" height="50" relative="1" as="geometry">
                        <mxPoint x="1830" y="780" as="sourcePoint"/>
                        <mxPoint x="2280" y="570" as="targetPoint"/>
                        <Array as="points">
                            <mxPoint x="2030" y="740"/>
                            <mxPoint x="2190" y="670"/>
                            <mxPoint x="2250" y="620"/>
                        </Array>
                    </mxGeometry>
                </mxCell>
                <mxCell id="iyeAIsauSFK0g4QlF5cE-44" value="7001" style="text;html=1;strokeColor=none;fillColor=none;align=center;verticalAlign=middle;whiteSpace=wrap;rounded=0;fontSize=33;fontStyle=1" parent="1" vertex="1">
                    <mxGeometry x="2208" y="562.5" width="40" height="20" as="geometry"/>
                </mxCell>
                <mxCell id="iyeAIsauSFK0g4QlF5cE-45" value="" style="rounded=1;whiteSpace=wrap;html=1;strokeWidth=3;fillColor=none;fontSize=33;" parent="1" vertex="1">
                    <mxGeometry x="2260" y="500" width="60" height="30" as="geometry"/>
                </mxCell>
                <mxCell id="iyeAIsauSFK0g4QlF5cE-46" value="&lt;font style=&quot;font-size: 24px&quot;&gt;UAL&lt;/font&gt;" style="text;html=1;strokeColor=none;fillColor=none;align=center;verticalAlign=middle;whiteSpace=wrap;rounded=0;fontSize=33;fontStyle=1" parent="1" vertex="1">
                    <mxGeometry x="2272" y="503" width="40" height="20" as="geometry"/>
                </mxCell>
                <mxCell id="iyeAIsauSFK0g4QlF5cE-47" value="&lt;font style=&quot;font-size: 24px&quot;&gt;ALOE VERA&lt;/font&gt;" style="text;html=1;strokeColor=none;fillColor=none;align=center;verticalAlign=middle;whiteSpace=wrap;rounded=0;fontSize=33;fontStyle=1" parent="1" vertex="1">
                    <mxGeometry x="1888" y="789" width="210" height="20" as="geometry"/>
                </mxCell>
                <mxCell id="iyeAIsauSFK0g4QlF5cE-48" value="" style="rounded=1;whiteSpace=wrap;html=1;strokeWidth=3;fillColor=none;fontSize=33;" parent="1" vertex="1">
                    <mxGeometry x="1918" y="779" width="150" height="40" as="geometry"/>
                </mxCell>
                <mxCell id="iyeAIsauSFK0g4QlF5cE-49" value="&lt;font style=&quot;font-size: 24px&quot;&gt;ACEBUCHE&lt;/font&gt;" style="text;html=1;strokeColor=none;fillColor=none;align=center;verticalAlign=middle;whiteSpace=wrap;rounded=0;fontSize=33;fontStyle=1" parent="1" vertex="1">
                    <mxGeometry x="1358.54" y="690" width="40" height="20" as="geometry"/>
                </mxCell>
                <mxCell id="iyeAIsauSFK0g4QlF5cE-50" value="" style="rounded=1;whiteSpace=wrap;html=1;strokeWidth=3;fillColor=none;fontSize=33;" parent="1" vertex="1">
                    <mxGeometry x="1300" y="680" width="150" height="50" as="geometry"/>
                </mxCell>
                <mxCell id="iyeAIsauSFK0g4QlF5cE-51" value="" style="verticalLabelPosition=bottom;align=center;html=1;verticalAlign=top;pointerEvents=1;dashed=0;shape=mxgraph.pid2valves.valve;valveType=gate;defState=closed;strokeWidth=1;fillColor=none;fontSize=17;rotation=0;" parent="1" vertex="1">
                    <mxGeometry x="1101" y="505.75" width="37.54" height="22.5" as="geometry"/>
                </mxCell>
                <mxCell id="iyeAIsauSFK0g4QlF5cE-52" value="" style="verticalLabelPosition=bottom;align=center;html=1;verticalAlign=top;pointerEvents=1;dashed=0;shape=mxgraph.pid2valves.valve;valveType=gate;defState=closed;strokeWidth=1;fillColor=none;fontSize=17;rotation=51;" parent="1" vertex="1">
                    <mxGeometry x="1637" y="585.82" width="37.54" height="22.5" as="geometry"/>
                </mxCell>
                <mxCell id="iyeAIsauSFK0g4QlF5cE-53" value="" style="endArrow=none;html=1;strokeWidth=4;fontSize=33;" parent="1" edge="1">
                    <mxGeometry width="50" height="50" relative="1" as="geometry">
                        <mxPoint x="1473" y="779" as="sourcePoint"/>
                        <mxPoint x="1673" y="586" as="targetPoint"/>
                        <Array as="points">
                            <mxPoint x="1470" y="759"/>
                            <mxPoint x="1530" y="719"/>
                            <mxPoint x="1610" y="649"/>
                            <mxPoint x="1640" y="609"/>
                        </Array>
                    </mxGeometry>
                </mxCell>
                <mxCell id="iyeAIsauSFK0g4QlF5cE-54" value="" style="endArrow=none;html=1;strokeWidth=4;fontSize=33;" parent="1" edge="1">
                    <mxGeometry width="50" height="50" relative="1" as="geometry">
                        <mxPoint x="1598" y="860" as="sourcePoint"/>
                        <mxPoint x="1533" y="717" as="targetPoint"/>
                        <Array as="points">
                            <mxPoint x="1589" y="840"/>
                            <mxPoint x="1579" y="780"/>
                        </Array>
                    </mxGeometry>
                </mxCell>
                <mxCell id="iyeAIsauSFK0g4QlF5cE-55" value="7010" style="text;html=1;strokeColor=none;fillColor=none;align=center;verticalAlign=middle;whiteSpace=wrap;rounded=0;fontSize=33;fontStyle=1" parent="1" vertex="1">
                    <mxGeometry x="1450" y="779" width="40" height="20" as="geometry"/>
                </mxCell>
                <mxCell id="iyeAIsauSFK0g4QlF5cE-56" value="7009" style="text;html=1;strokeColor=none;fillColor=none;align=center;verticalAlign=middle;whiteSpace=wrap;rounded=0;fontSize=33;fontStyle=1" parent="1" vertex="1">
                    <mxGeometry x="1560" y="710" width="40" height="20" as="geometry"/>
                </mxCell>
                <mxCell id="iyeAIsauSFK0g4QlF5cE-57" value="7008" style="text;html=1;strokeColor=none;fillColor=none;align=center;verticalAlign=middle;whiteSpace=wrap;rounded=0;fontSize=33;fontStyle=1" parent="1" vertex="1">
                    <mxGeometry x="1590" y="740" width="40" height="20" as="geometry"/>
                </mxCell>
                <mxCell id="iyeAIsauSFK0g4QlF5cE-58" value="7007" style="text;html=1;strokeColor=none;fillColor=none;align=center;verticalAlign=middle;whiteSpace=wrap;rounded=0;fontSize=33;fontStyle=1" parent="1" vertex="1">
                    <mxGeometry x="1600" y="769" width="40" height="20" as="geometry"/>
                </mxCell>
                <mxCell id="iyeAIsauSFK0g4QlF5cE-59" value="7006" style="text;html=1;strokeColor=none;fillColor=none;align=center;verticalAlign=middle;whiteSpace=wrap;rounded=0;fontSize=33;fontStyle=1" parent="1" vertex="1">
                    <mxGeometry x="1610" y="809" width="40" height="20" as="geometry"/>
                </mxCell>
                <mxCell id="iyeAIsauSFK0g4QlF5cE-60" value="PITA" style="text;html=1;strokeColor=none;fillColor=none;align=center;verticalAlign=middle;whiteSpace=wrap;rounded=0;fontSize=24;fontStyle=1" parent="1" vertex="1">
                    <mxGeometry x="620" y="283" width="40" height="20" as="geometry"/>
                </mxCell>
                <mxCell id="iyeAIsauSFK0g4QlF5cE-61" value="7301" style="text;html=1;strokeColor=none;fillColor=none;align=center;verticalAlign=middle;whiteSpace=wrap;rounded=0;fontSize=33;fontStyle=1" parent="1" vertex="1">
                    <mxGeometry x="763" y="236" width="40" height="20" as="geometry"/>
                </mxCell>
                <mxCell id="iyeAIsauSFK0g4QlF5cE-62" value="7300" style="text;html=1;strokeColor=none;fillColor=none;align=center;verticalAlign=middle;whiteSpace=wrap;rounded=0;fontSize=33;fontStyle=4" parent="1" vertex="1">
                    <mxGeometry x="763" y="200" width="40" height="20" as="geometry"/>
                </mxCell>
                <mxCell id="iyeAIsauSFK0g4QlF5cE-63" value="" style="rounded=1;whiteSpace=wrap;html=1;strokeWidth=3;fillColor=none;fontSize=33;" parent="1" vertex="1">
                    <mxGeometry x="580" y="270" width="120" height="40" as="geometry"/>
                </mxCell>
                <mxCell id="iyeAIsauSFK0g4QlF5cE-64" value="" style="endArrow=none;html=1;strokeWidth=4;fontSize=33;" parent="1" edge="1">
                    <mxGeometry width="50" height="50" relative="1" as="geometry">
                        <mxPoint x="970" y="640" as="sourcePoint"/>
                        <mxPoint x="1120" y="500" as="targetPoint"/>
                        <Array as="points">
                            <mxPoint x="1120" y="640"/>
                            <mxPoint x="1130" y="610"/>
                            <mxPoint x="1120" y="550"/>
                        </Array>
                    </mxGeometry>
                </mxCell>
                <mxCell id="iyeAIsauSFK0g4QlF5cE-66" value="7202" style="text;html=1;strokeColor=none;fillColor=none;align=center;verticalAlign=middle;whiteSpace=wrap;rounded=0;fontSize=33;fontStyle=1" parent="1" vertex="1">
                    <mxGeometry x="915" y="649" width="40" height="20" as="geometry"/>
                </mxCell>
                <mxCell id="iyeAIsauSFK0g4QlF5cE-67" value="7201" style="text;html=1;strokeColor=none;fillColor=none;align=center;verticalAlign=middle;whiteSpace=wrap;rounded=0;fontSize=33;fontStyle=1" parent="1" vertex="1">
                    <mxGeometry x="1023" y="649" width="40" height="20" as="geometry"/>
                </mxCell>
                <mxCell id="iyeAIsauSFK0g4QlF5cE-68" value="BALSA TRANCOS" style="text;html=1;strokeColor=none;fillColor=none;align=center;verticalAlign=middle;whiteSpace=wrap;rounded=0;fontSize=33;fontStyle=1" parent="1" vertex="1">
                    <mxGeometry x="2200" y="1262" width="40" height="20" as="geometry"/>
                </mxCell>
                <mxCell id="iyeAIsauSFK0g4QlF5cE-69" value="" style="rounded=1;whiteSpace=wrap;html=1;strokeWidth=3;fillColor=none;fontSize=33;" parent="1" vertex="1">
                    <mxGeometry x="2130" y="1232" width="180" height="80" as="geometry"/>
                </mxCell>
                <mxCell id="iyeAIsauSFK0g4QlF5cE-70" value="&lt;font style=&quot;font-size: 80px&quot;&gt;SECTOR - VA&lt;/font&gt;" style="text;html=1;strokeColor=none;fillColor=none;align=center;verticalAlign=middle;whiteSpace=wrap;rounded=0;fontSize=33;fontStyle=1" parent="1" vertex="1">
                    <mxGeometry x="185" y="570" width="550" height="60" as="geometry"/>
                </mxCell>
                <mxCell id="iyeAIsauSFK0g4QlF5cE-71" value="&lt;font style=&quot;font-size: 44px&quot;&gt;Actualizado: 05/10/2020&lt;/font&gt;" style="text;html=1;strokeColor=none;fillColor=none;align=center;verticalAlign=middle;whiteSpace=wrap;rounded=0;fontSize=33;fontStyle=1" parent="1" vertex="1">
                    <mxGeometry x="175" y="670" width="570" height="20" as="geometry"/>
                </mxCell>
                <mxCell id="iyeAIsauSFK0g4QlF5cE-73" value="&lt;font style=&quot;font-size: 80px&quot;&gt;SECTOR - VIII&lt;/font&gt;" style="text;html=1;strokeColor=none;fillColor=none;align=center;verticalAlign=middle;whiteSpace=wrap;rounded=0;fontSize=33;fontStyle=1" parent="1" vertex="1">
                    <mxGeometry x="1731" y="1840" width="550" height="60" as="geometry"/>
                </mxCell>
                <mxCell id="iyeAIsauSFK0g4QlF5cE-74" value="&lt;font style=&quot;font-size: 44px&quot;&gt;Actualizado: 05/10/2020&lt;/font&gt;" style="text;html=1;strokeColor=none;fillColor=none;align=center;verticalAlign=middle;whiteSpace=wrap;rounded=0;fontSize=33;fontStyle=1" parent="1" vertex="1">
                    <mxGeometry x="1721" y="1950" width="570" height="20" as="geometry"/>
                </mxCell>
                <mxCell id="iyeAIsauSFK0g4QlF5cE-75" value="" style="verticalLabelPosition=bottom;align=center;html=1;verticalAlign=top;pointerEvents=1;dashed=0;shape=mxgraph.pid2valves.valve;valveType=gate;defState=closed;strokeWidth=1;fillColor=none;fontSize=17;rotation=84;" parent="1" vertex="1">
                    <mxGeometry x="1200" y="2423" width="37.54" height="22.5" as="geometry"/>
                </mxCell>
                <mxCell id="iyeAIsauSFK0g4QlF5cE-76" value="" style="verticalLabelPosition=bottom;align=center;html=1;verticalAlign=top;pointerEvents=1;dashed=0;shape=mxgraph.pid2valves.valve;valveType=gate;defState=closed;strokeWidth=1;fillColor=none;fontSize=17;rotation=-75;" parent="1" vertex="1">
                    <mxGeometry x="1252.46" y="2430.5" width="37.54" height="22.5" as="geometry"/>
                </mxCell>
                <mxCell id="iyeAIsauSFK0g4QlF5cE-77" value="" style="verticalLabelPosition=bottom;align=center;html=1;verticalAlign=top;pointerEvents=1;dashed=0;shape=mxgraph.pid2valves.valve;valveType=gate;defState=closed;strokeWidth=1;fillColor=none;fontSize=17;rotation=0;" parent="1" vertex="1">
                    <mxGeometry x="539.46" y="2456" width="37.54" height="22.5" as="geometry"/>
                </mxCell>
                <mxCell id="iyeAIsauSFK0g4QlF5cE-78" value="" style="verticalLabelPosition=bottom;align=center;html=1;verticalAlign=top;pointerEvents=1;dashed=0;shape=mxgraph.pid2valves.valve;valveType=gate;defState=closed;strokeWidth=1;fillColor=none;fontSize=17;rotation=90;" parent="1" vertex="1">
                    <mxGeometry x="486.77" y="2149" width="37.54" height="22.5" as="geometry"/>
                </mxCell>
                <mxCell id="iyeAIsauSFK0g4QlF5cE-79" value="" style="verticalLabelPosition=bottom;align=center;html=1;verticalAlign=top;pointerEvents=1;dashed=0;shape=mxgraph.pid2valves.valve;valveType=gate;defState=closed;strokeWidth=1;fillColor=none;fontSize=17;rotation=90;" parent="1" vertex="1">
                    <mxGeometry x="560" y="1999.5" width="37.54" height="22.5" as="geometry"/>
                </mxCell>
                <mxCell id="iyeAIsauSFK0g4QlF5cE-80" value="" style="verticalLabelPosition=bottom;align=center;html=1;verticalAlign=top;pointerEvents=1;dashed=0;shape=mxgraph.pid2valves.valve;valveType=gate;defState=closed;strokeWidth=1;fillColor=none;fontSize=17;rotation=0;" parent="1" vertex="1">
                    <mxGeometry x="528.46" y="2020" width="37.54" height="22.5" as="geometry"/>
                </mxCell>
                <mxCell id="iyeAIsauSFK0g4QlF5cE-81" value="&lt;font style=&quot;font-size: 24px&quot;&gt;LOS COBOS&lt;/font&gt;" style="text;html=1;strokeColor=none;fillColor=none;align=center;verticalAlign=middle;whiteSpace=wrap;rounded=0;fontSize=33;fontStyle=1" parent="1" vertex="1">
                    <mxGeometry x="1838" y="2472.5" width="230" height="20" as="geometry"/>
                </mxCell>
                <mxCell id="iyeAIsauSFK0g4QlF5cE-82" value="BALSA" style="text;html=1;strokeColor=none;fillColor=none;align=center;verticalAlign=middle;whiteSpace=wrap;rounded=0;fontSize=33;fontStyle=1" parent="1" vertex="1">
                    <mxGeometry x="575" y="1661" width="40" height="20" as="geometry"/>
                </mxCell>
                <mxCell id="iyeAIsauSFK0g4QlF5cE-83" value="" style="rounded=1;whiteSpace=wrap;html=1;strokeWidth=3;fillColor=none;fontSize=33;" parent="1" vertex="1">
                    <mxGeometry x="510.5" y="1645.5" width="165" height="59" as="geometry"/>
                </mxCell>
                <mxCell id="iyeAIsauSFK0g4QlF5cE-85" value="" style="rounded=1;whiteSpace=wrap;html=1;strokeWidth=3;fillColor=none;fontSize=33;" parent="1" vertex="1">
                    <mxGeometry x="1873" y="2467" width="160" height="40" as="geometry"/>
                </mxCell>
                <mxCell id="iyeAIsauSFK0g4QlF5cE-86" value="" style="endArrow=none;html=1;strokeWidth=4;fontSize=33;" parent="1" edge="1">
                    <mxGeometry width="50" height="50" relative="1" as="geometry">
                        <mxPoint x="1811" y="2652" as="sourcePoint"/>
                        <mxPoint x="1244" y="2143" as="targetPoint"/>
                        <Array as="points">
                            <mxPoint x="1799" y="2591"/>
                            <mxPoint x="1769" y="2521"/>
                            <mxPoint x="1679" y="2341"/>
                            <mxPoint x="1659" y="2341"/>
                            <mxPoint x="1649" y="2401"/>
                            <mxPoint x="1539" y="2431"/>
                            <mxPoint x="1489" y="2521"/>
                            <mxPoint x="1429" y="2521"/>
                            <mxPoint x="1359" y="2501"/>
                            <mxPoint x="1299" y="2471"/>
                            <mxPoint x="1289" y="2441"/>
                            <mxPoint x="1242" y="2441"/>
                        </Array>
                    </mxGeometry>
                </mxCell>
                <mxCell id="iyeAIsauSFK0g4QlF5cE-88" value="" style="endArrow=none;html=1;strokeWidth=4;fontSize=33;" parent="1" edge="1">
                    <mxGeometry width="50" height="50" relative="1" as="geometry">
                        <mxPoint x="1240" y="2430" as="sourcePoint"/>
                        <mxPoint x="860" y="2680" as="targetPoint"/>
                        <Array as="points">
                            <mxPoint x="1130" y="2450"/>
                            <mxPoint x="1030" y="2480"/>
                            <mxPoint x="990" y="2500"/>
                            <mxPoint x="940" y="2550"/>
                        </Array>
                    </mxGeometry>
                </mxCell>
                <mxCell id="iyeAIsauSFK0g4QlF5cE-89" value="8130" style="text;html=1;strokeColor=none;fillColor=none;align=center;verticalAlign=middle;whiteSpace=wrap;rounded=0;fontSize=33;fontStyle=1" parent="1" vertex="1">
                    <mxGeometry x="1775" y="2454" width="40" height="20" as="geometry"/>
                </mxCell>
                <mxCell id="iyeAIsauSFK0g4QlF5cE-90" value="8132" style="text;html=1;strokeColor=none;fillColor=none;align=center;verticalAlign=middle;whiteSpace=wrap;rounded=0;fontSize=33;fontStyle=1" parent="1" vertex="1">
                    <mxGeometry x="1799" y="2515" width="40" height="20" as="geometry"/>
                </mxCell>
                <mxCell id="iyeAIsauSFK0g4QlF5cE-91" value="8134" style="text;html=1;strokeColor=none;fillColor=none;align=center;verticalAlign=middle;whiteSpace=wrap;rounded=0;fontSize=33;fontStyle=1" parent="1" vertex="1">
                    <mxGeometry x="1823" y="2588" width="40" height="20" as="geometry"/>
                </mxCell>
                <mxCell id="iyeAIsauSFK0g4QlF5cE-92" value="8138" style="text;html=1;strokeColor=none;fillColor=none;align=center;verticalAlign=middle;whiteSpace=wrap;rounded=0;fontSize=33;fontStyle=1" parent="1" vertex="1">
                    <mxGeometry x="1473" y="2540" width="40" height="20" as="geometry"/>
                </mxCell>
                <mxCell id="iyeAIsauSFK0g4QlF5cE-93" value="8139" style="text;html=1;strokeColor=none;fillColor=none;align=center;verticalAlign=middle;whiteSpace=wrap;rounded=0;fontSize=33;fontStyle=1" parent="1" vertex="1">
                    <mxGeometry x="1379" y="2527" width="40" height="20" as="geometry"/>
                </mxCell>
                <mxCell id="iyeAIsauSFK0g4QlF5cE-94" value="8121" style="text;html=1;strokeColor=none;fillColor=none;align=center;verticalAlign=middle;whiteSpace=wrap;rounded=0;fontSize=33;fontStyle=1" parent="1" vertex="1">
                    <mxGeometry x="1280" y="2498" width="40" height="20" as="geometry"/>
                </mxCell>
                <mxCell id="iyeAIsauSFK0g4QlF5cE-95" value="8140" style="text;html=1;strokeColor=none;fillColor=none;align=center;verticalAlign=middle;whiteSpace=wrap;rounded=0;fontSize=33;fontStyle=1" parent="1" vertex="1">
                    <mxGeometry x="1130" y="2464" width="40" height="20" as="geometry"/>
                </mxCell>
                <mxCell id="iyeAIsauSFK0g4QlF5cE-97" value="" style="endArrow=none;html=1;strokeWidth=4;fontSize=33;" parent="1" edge="1">
                    <mxGeometry width="50" height="50" relative="1" as="geometry">
                        <mxPoint x="68" y="2160" as="sourcePoint"/>
                        <mxPoint x="438" y="3250" as="targetPoint"/>
                        <Array as="points">
                            <mxPoint x="558" y="2160"/>
                            <mxPoint x="558" y="2880"/>
                            <mxPoint x="530" y="3020"/>
                        </Array>
                    </mxGeometry>
                </mxCell>
                <mxCell id="iyeAIsauSFK0g4QlF5cE-101" value="8005" style="text;html=1;strokeColor=none;fillColor=none;align=center;verticalAlign=middle;whiteSpace=wrap;rounded=0;fontSize=33;fontStyle=1" parent="1" vertex="1">
                    <mxGeometry x="102" y="2171.5" width="40" height="20" as="geometry"/>
                </mxCell>
                <mxCell id="iyeAIsauSFK0g4QlF5cE-102" value="8003" style="text;html=1;strokeColor=none;fillColor=none;align=center;verticalAlign=middle;whiteSpace=wrap;rounded=0;fontSize=33;fontStyle=1" parent="1" vertex="1">
                    <mxGeometry x="185" y="2212.5" width="40" height="20" as="geometry"/>
                </mxCell>
                <mxCell id="iyeAIsauSFK0g4QlF5cE-103" value="8002" style="text;html=1;strokeColor=none;fillColor=none;align=center;verticalAlign=middle;whiteSpace=wrap;rounded=0;fontSize=33;fontStyle=1" parent="1" vertex="1">
                    <mxGeometry x="270" y="2171.5" width="40" height="20" as="geometry"/>
                </mxCell>
                <mxCell id="iyeAIsauSFK0g4QlF5cE-105" value="8007" style="text;html=1;strokeColor=none;fillColor=none;align=center;verticalAlign=middle;whiteSpace=wrap;rounded=0;fontSize=33;fontStyle=1" parent="1" vertex="1">
                    <mxGeometry x="590" y="2297" width="40" height="20" as="geometry"/>
                </mxCell>
                <mxCell id="iyeAIsauSFK0g4QlF5cE-106" value="8008" style="text;html=1;strokeColor=none;fillColor=none;align=center;verticalAlign=middle;whiteSpace=wrap;rounded=0;fontSize=33;fontStyle=1" parent="1" vertex="1">
                    <mxGeometry x="590" y="2338" width="40" height="20" as="geometry"/>
                </mxCell>
                <mxCell id="iyeAIsauSFK0g4QlF5cE-107" value="8009" style="text;html=1;strokeColor=none;fillColor=none;align=center;verticalAlign=middle;whiteSpace=wrap;rounded=0;fontSize=33;fontStyle=1" parent="1" vertex="1">
                    <mxGeometry x="590" y="2380" width="40" height="20" as="geometry"/>
                </mxCell>
                <mxCell id="iyeAIsauSFK0g4QlF5cE-108" value="8010" style="text;html=1;strokeColor=none;fillColor=none;align=center;verticalAlign=middle;whiteSpace=wrap;rounded=0;fontSize=33;fontStyle=1" parent="1" vertex="1">
                    <mxGeometry x="590" y="2424.25" width="40" height="20" as="geometry"/>
                </mxCell>
                <mxCell id="iyeAIsauSFK0g4QlF5cE-109" value="8016" style="text;html=1;strokeColor=none;fillColor=none;align=center;verticalAlign=middle;whiteSpace=wrap;rounded=0;fontSize=33;fontStyle=1" parent="1" vertex="1">
                    <mxGeometry x="590" y="2487" width="40" height="20" as="geometry"/>
                </mxCell>
                <mxCell id="iyeAIsauSFK0g4QlF5cE-110" value="8011" style="text;html=1;strokeColor=none;fillColor=none;align=center;verticalAlign=middle;whiteSpace=wrap;rounded=0;fontSize=33;fontStyle=1" parent="1" vertex="1">
                    <mxGeometry x="590" y="2535" width="40" height="20" as="geometry"/>
                </mxCell>
                <mxCell id="iyeAIsauSFK0g4QlF5cE-111" value="8015" style="text;html=1;strokeColor=none;fillColor=none;align=center;verticalAlign=middle;whiteSpace=wrap;rounded=0;fontSize=33;fontStyle=1" parent="1" vertex="1">
                    <mxGeometry x="590" y="2588" width="40" height="20" as="geometry"/>
                </mxCell>
                <mxCell id="iyeAIsauSFK0g4QlF5cE-115" value="8012" style="text;html=1;strokeColor=none;fillColor=none;align=center;verticalAlign=middle;whiteSpace=wrap;rounded=0;fontSize=33;fontStyle=1" parent="1" vertex="1">
                    <mxGeometry x="590" y="2745" width="40" height="20" as="geometry"/>
                </mxCell>
                <mxCell id="iyeAIsauSFK0g4QlF5cE-116" value="8014" style="text;html=1;strokeColor=none;fillColor=none;align=center;verticalAlign=middle;whiteSpace=wrap;rounded=0;fontSize=33;fontStyle=1" parent="1" vertex="1">
                    <mxGeometry x="478.77" y="2670" width="40" height="20" as="geometry"/>
                </mxCell>
                <mxCell id="iyeAIsauSFK0g4QlF5cE-117" value="8013" style="text;html=1;strokeColor=none;fillColor=none;align=center;verticalAlign=middle;whiteSpace=wrap;rounded=0;fontSize=33;fontStyle=1" parent="1" vertex="1">
                    <mxGeometry x="590" y="2780" width="40" height="20" as="geometry"/>
                </mxCell>
                <mxCell id="iyeAIsauSFK0g4QlF5cE-118" value="8000" style="text;html=1;strokeColor=none;fillColor=none;align=center;verticalAlign=middle;whiteSpace=wrap;rounded=0;fontSize=33;fontStyle=1" parent="1" vertex="1">
                    <mxGeometry x="478.77" y="3230" width="40" height="20" as="geometry"/>
                </mxCell>
                <mxCell id="iyeAIsauSFK0g4QlF5cE-119" value="8001" style="text;html=1;strokeColor=none;fillColor=none;align=center;verticalAlign=middle;whiteSpace=wrap;rounded=0;fontSize=33;fontStyle=1" parent="1" vertex="1">
                    <mxGeometry x="454" y="3000" width="40" height="20" as="geometry"/>
                </mxCell>
                <mxCell id="iyeAIsauSFK0g4QlF5cE-120" value="" style="endArrow=none;html=1;strokeWidth=4;fontSize=33;" parent="1" edge="1">
                    <mxGeometry width="50" height="50" relative="1" as="geometry">
                        <mxPoint x="548" y="2160" as="sourcePoint"/>
                        <mxPoint x="521" y="1703" as="targetPoint"/>
                        <Array as="points">
                            <mxPoint x="547" y="2010"/>
                        </Array>
                    </mxGeometry>
                </mxCell>
                <mxCell id="iyeAIsauSFK0g4QlF5cE-121" value="" style="endArrow=none;html=1;strokeWidth=4;fontSize=33;" parent="1" edge="1">
                    <mxGeometry width="50" height="50" relative="1" as="geometry">
                        <mxPoint x="548.86" y="2012" as="sourcePoint"/>
                        <mxPoint x="1586" y="2147" as="targetPoint"/>
                        <Array as="points">
                            <mxPoint x="928.86" y="2011"/>
                            <mxPoint x="938.86" y="2141"/>
                        </Array>
                    </mxGeometry>
                </mxCell>
                <mxCell id="iyeAIsauSFK0g4QlF5cE-123" value="" style="endArrow=none;html=1;strokeWidth=4;fontSize=33;" parent="1" edge="1">
                    <mxGeometry width="50" height="50" relative="1" as="geometry">
                        <mxPoint x="642" y="2230" as="sourcePoint"/>
                        <mxPoint x="1243" y="2179" as="targetPoint"/>
                        <Array as="points">
                            <mxPoint x="930" y="2237"/>
                            <mxPoint x="936" y="2227"/>
                            <mxPoint x="936" y="2177"/>
                        </Array>
                    </mxGeometry>
                </mxCell>
                <mxCell id="iyeAIsauSFK0g4QlF5cE-124" value="8101" style="text;html=1;strokeColor=none;fillColor=none;align=center;verticalAlign=middle;whiteSpace=wrap;rounded=0;fontSize=33;fontStyle=1" parent="1" vertex="1">
                    <mxGeometry x="623" y="1979.5" width="40" height="20" as="geometry"/>
                </mxCell>
                <mxCell id="iyeAIsauSFK0g4QlF5cE-125" value="8103" style="text;html=1;strokeColor=none;fillColor=none;align=center;verticalAlign=middle;whiteSpace=wrap;rounded=0;fontSize=33;fontStyle=1" parent="1" vertex="1">
                    <mxGeometry x="751" y="1979.5" width="40" height="20" as="geometry"/>
                </mxCell>
                <mxCell id="iyeAIsauSFK0g4QlF5cE-126" value="8104" style="text;html=1;strokeColor=none;fillColor=none;align=center;verticalAlign=middle;whiteSpace=wrap;rounded=0;fontSize=33;fontStyle=1" parent="1" vertex="1">
                    <mxGeometry x="820" y="1943" width="40" height="20" as="geometry"/>
                </mxCell>
                <mxCell id="iyeAIsauSFK0g4QlF5cE-127" value="8105" style="text;html=1;strokeColor=none;fillColor=none;align=center;verticalAlign=middle;whiteSpace=wrap;rounded=0;fontSize=33;fontStyle=1" parent="1" vertex="1">
                    <mxGeometry x="880" y="1979.5" width="40" height="20" as="geometry"/>
                </mxCell>
                <mxCell id="iyeAIsauSFK0g4QlF5cE-128" value="8109" style="text;html=1;strokeColor=none;fillColor=none;align=center;verticalAlign=middle;whiteSpace=wrap;rounded=0;fontSize=33;fontStyle=1" parent="1" vertex="1">
                    <mxGeometry x="1170" y="2079" width="40" height="20" as="geometry"/>
                </mxCell>
                <mxCell id="iyeAIsauSFK0g4QlF5cE-129" value="8108" style="text;html=1;strokeColor=none;fillColor=none;align=center;verticalAlign=middle;whiteSpace=wrap;rounded=0;fontSize=33;fontStyle=1" parent="1" vertex="1">
                    <mxGeometry x="1110" y="2113" width="40" height="20" as="geometry"/>
                </mxCell>
                <mxCell id="iyeAIsauSFK0g4QlF5cE-130" value="8107" style="text;html=1;strokeColor=none;fillColor=none;align=center;verticalAlign=middle;whiteSpace=wrap;rounded=0;fontSize=33;fontStyle=1" parent="1" vertex="1">
                    <mxGeometry x="1038" y="2079" width="40" height="20" as="geometry"/>
                </mxCell>
                <mxCell id="iyeAIsauSFK0g4QlF5cE-131" value="8106" style="text;html=1;strokeColor=none;fillColor=none;align=center;verticalAlign=middle;whiteSpace=wrap;rounded=0;fontSize=33;fontStyle=1" parent="1" vertex="1">
                    <mxGeometry x="963.54" y="2110" width="40" height="20" as="geometry"/>
                </mxCell>
                <mxCell id="iyeAIsauSFK0g4QlF5cE-132" value="8114" style="text;html=1;strokeColor=none;fillColor=none;align=center;verticalAlign=middle;whiteSpace=wrap;rounded=0;fontSize=33;fontStyle=1" parent="1" vertex="1">
                    <mxGeometry x="1160" y="2190" width="40" height="20" as="geometry"/>
                </mxCell>
                <mxCell id="iyeAIsauSFK0g4QlF5cE-133" value="8116" style="text;html=1;strokeColor=none;fillColor=none;align=center;verticalAlign=middle;whiteSpace=wrap;rounded=0;fontSize=33;fontStyle=1" parent="1" vertex="1">
                    <mxGeometry x="1070" y="2190" width="40" height="20" as="geometry"/>
                </mxCell>
                <mxCell id="iyeAIsauSFK0g4QlF5cE-134" value="8117" style="text;html=1;strokeColor=none;fillColor=none;align=center;verticalAlign=middle;whiteSpace=wrap;rounded=0;fontSize=33;fontStyle=1" parent="1" vertex="1">
                    <mxGeometry x="983" y="2190" width="40" height="20" as="geometry"/>
                </mxCell>
                <mxCell id="iyeAIsauSFK0g4QlF5cE-135" value="8118" style="text;html=1;strokeColor=none;fillColor=none;align=center;verticalAlign=middle;whiteSpace=wrap;rounded=0;fontSize=33;fontStyle=1" parent="1" vertex="1">
                    <mxGeometry x="953" y="2232.5" width="40" height="20" as="geometry"/>
                </mxCell>
                <mxCell id="iyeAIsauSFK0g4QlF5cE-136" value="8119" style="text;html=1;strokeColor=none;fillColor=none;align=center;verticalAlign=middle;whiteSpace=wrap;rounded=0;fontSize=33;fontStyle=1" parent="1" vertex="1">
                    <mxGeometry x="807" y="2250" width="40" height="20" as="geometry"/>
                </mxCell>
                <mxCell id="iyeAIsauSFK0g4QlF5cE-137" value="8120" style="text;html=1;strokeColor=none;fillColor=none;align=center;verticalAlign=middle;whiteSpace=wrap;rounded=0;fontSize=33;fontStyle=1" parent="1" vertex="1">
                    <mxGeometry x="660" y="2250" width="40" height="20" as="geometry"/>
                </mxCell>
                <mxCell id="iyeAIsauSFK0g4QlF5cE-138" value="8102" style="text;html=1;strokeColor=none;fillColor=none;align=center;verticalAlign=middle;whiteSpace=wrap;rounded=0;fontSize=33;fontStyle=1" parent="1" vertex="1">
                    <mxGeometry x="691" y="1944" width="40" height="20" as="geometry"/>
                </mxCell>
                <mxCell id="iyeAIsauSFK0g4QlF5cE-139" value="8110" style="text;html=1;strokeColor=none;fillColor=none;align=center;verticalAlign=middle;whiteSpace=wrap;rounded=0;fontSize=33;fontStyle=1" parent="1" vertex="1">
                    <mxGeometry x="1268.54" y="2113" width="40" height="20" as="geometry"/>
                </mxCell>
                <mxCell id="iyeAIsauSFK0g4QlF5cE-140" value="8111" style="text;html=1;strokeColor=none;fillColor=none;align=center;verticalAlign=middle;whiteSpace=wrap;rounded=0;fontSize=33;fontStyle=1" parent="1" vertex="1">
                    <mxGeometry x="1340" y="2079" width="40" height="20" as="geometry"/>
                </mxCell>
                <mxCell id="iyeAIsauSFK0g4QlF5cE-141" value="8113" style="text;html=1;strokeColor=none;fillColor=none;align=center;verticalAlign=middle;whiteSpace=wrap;rounded=0;fontSize=33;fontStyle=1" parent="1" vertex="1">
                    <mxGeometry x="1410" y="2113" width="40" height="20" as="geometry"/>
                </mxCell>
                <mxCell id="iyeAIsauSFK0g4QlF5cE-142" value="8112" style="text;html=1;strokeColor=none;fillColor=none;align=center;verticalAlign=middle;whiteSpace=wrap;rounded=0;fontSize=33;fontStyle=1" parent="1" vertex="1">
                    <mxGeometry x="1486" y="2079" width="40" height="20" as="geometry"/>
                </mxCell>
                <mxCell id="iyeAIsauSFK0g4QlF5cE-144" value="" style="verticalLabelPosition=bottom;align=center;html=1;verticalAlign=top;pointerEvents=1;dashed=0;shape=mxgraph.pid2valves.valve;valveType=gate;defState=closed;strokeWidth=1;fillColor=none;fontSize=17;rotation=15;" parent="1" vertex="1">
                    <mxGeometry x="1815" y="400" width="37.54" height="22.5" as="geometry"/>
                </mxCell>
                <mxCell id="iyeAIsauSFK0g4QlF5cE-145" value="" style="verticalLabelPosition=bottom;align=center;html=1;verticalAlign=top;pointerEvents=1;dashed=0;shape=mxgraph.pid2valves.valve;valveType=gate;defState=closed;strokeWidth=1;fillColor=none;fontSize=17;rotation=0;" parent="1" vertex="1">
                    <mxGeometry x="1801.46" y="342" width="37.54" height="22.5" as="geometry"/>
                </mxCell>
            </root>
        </mxGraphModel>
    </diagram>
</mxfile>